<svg xmlns="http://www.w3.org/2000/svg" viewBox="0 0 1200 800" role="img" aria-labelledby="title desc">
  <title id="title">Table de diagnostic</title>
  <desc id="desc">Illustration photo-like d'une table d'atelier avec outils et appareil en diagnostic.</desc>
  <defs>
    <linearGradient id="bg" x1="0" y1="0" x2="1" y2="1">
      <stop offset="0" stop-color="#dce9df"/>
      <stop offset="1" stop-color="#f7efe2"/>
    </linearGradient>
    <filter id="soft" x="-20%" y="-20%" width="140%" height="140%">
      <feDropShadow dx="0" dy="16" stdDeviation="18" flood-color="#17211d" flood-opacity=".18"/>
    </filter>
  </defs>
  <rect width="1200" height="800" fill="url(#bg)"/>
  <rect x="100" y="150" width="1000" height="500" rx="28" fill="#f6f0e6" filter="url(#soft)"/>
  <rect x="170" y="220" width="360" height="250" rx="22" fill="#d7ded8"/>
  <rect x="210" y="260" width="280" height="170" rx="18" fill="#fbfaf6"/>
  <circle cx="350" cy="345" r="52" fill="#3f6f55"/>
  <path d="M675 230l68 68-220 220-86 18 18-86 220-220z" fill="#b56b4d"/>
  <path d="M714 191l68 68-39 39-68-68z" fill="#17211d"/>
  <rect x="760" y="430" width="210" height="42" rx="21" fill="#73a580"/>
  <rect x="780" y="370" width="170" height="38" rx="19" fill="#17211d"/>
  <circle cx="886" cy="250" r="60" fill="#ffffff" opacity=".75"/>
  <path d="M862 250h48M886 226v48" stroke="#3f6f55" stroke-width="16" stroke-linecap="round"/>
</svg>
